<mxfile host="app.diagrams.net" modified="2024-01-22T18:37:12.660Z" agent="Mozilla/5.0 (Windows NT 10.0; Win64; x64) AppleWebKit/537.36 (KHTML, like Gecko) Chrome/120.0.0.0 Safari/537.36" version="22.1.21" etag="cNbR7NrNO2l370AmbHRd" type="github">
  <diagram name="Page-1" id="uYuWvuaXBBDTcRH4p7qR">
    <mxGraphModel>
      <root>
        <mxCell id="0" />
        <mxCell id="1" parent="0" />
      </root>
    </mxGraphModel>
  </diagram>
</mxfile>
